<svg width="124" height="40" viewBox="0 0 124 40" fill="none" xmlns="http://www.w3.org/2000/svg">
<g clip-path="url(#clip0_145_2189)">
<path d="M44.9848 13.0803C46.2348 13.0803 47.3586 13.2697 48.356 13.6485C49.3535 14.0273 50.1427 14.5891 50.7235 15.3341C51.3169 16.0664 51.6136 16.9629 51.6136 18.0235H47.6174C47.6174 17.4806 47.3775 17.045 46.8977 16.7167C46.4179 16.3758 45.8371 16.2053 45.1553 16.2053C44.1704 16.2053 43.4255 16.4705 42.9204 17.0008C42.4154 17.5184 42.1629 18.2571 42.1629 19.2167V20.4288C42.1629 21.3884 42.4154 22.1333 42.9204 22.6636C43.4255 23.1813 44.1704 23.4402 45.1553 23.4402C45.8371 23.4402 46.4179 23.2823 46.8977 22.9667C47.3775 22.6384 47.6174 22.2217 47.6174 21.7167H44.6629V19.0652H51.6136V26.3379H49.4545L49.0379 25.05C47.851 26.0601 46.298 26.5652 44.3788 26.5652C42.2197 26.5652 40.5972 26.0033 39.5113 24.8796C38.4255 23.7432 37.8825 22.0576 37.8825 19.8227C37.8825 17.6131 38.4949 15.9402 39.7197 14.8038C40.957 13.6548 42.7121 13.0803 44.9848 13.0803ZM58.8865 16.1106C60.4143 16.1106 61.658 16.3695 62.6176 16.8871C63.5771 17.3922 64.0569 18.2192 64.0569 19.3682V23.2697C64.0569 23.4844 64.1075 23.6611 64.2085 23.8C64.3095 23.9389 64.461 24.0083 64.663 24.0083H65.3448V26.1864C65.3069 26.2116 65.2059 26.2558 65.0418 26.319C64.8903 26.3695 64.6693 26.42 64.3789 26.4705C64.0885 26.5336 63.7539 26.5652 63.3751 26.5652C62.6428 26.5652 62.0367 26.4578 61.5569 26.2432C61.0898 26.0159 60.7678 25.7066 60.591 25.3152C60.1112 25.694 59.5746 25.997 58.9812 26.2243C58.3878 26.4515 57.6933 26.5652 56.8979 26.5652C54.5494 26.5652 53.3751 25.6308 53.3751 23.7621C53.3751 22.7899 53.634 22.0513 54.1516 21.5462C54.6819 21.0285 55.4395 20.675 56.4244 20.4856C57.4092 20.2962 58.6971 20.2015 60.288 20.2015V19.7091C60.288 19.3177 60.1491 19.021 59.8713 18.8189C59.6062 18.6169 59.259 18.5159 58.8297 18.5159C58.4383 18.5159 58.0973 18.5854 57.8069 18.7243C57.5292 18.8631 57.3903 19.0841 57.3903 19.3871V19.4629H53.6782C53.6655 19.3998 53.6592 19.3114 53.6592 19.1977C53.6592 18.2508 54.1074 17.4995 55.0039 16.9439C55.913 16.3884 57.2072 16.1106 58.8865 16.1106ZM60.288 21.9818C59.2148 21.9818 58.4193 22.1018 57.9016 22.3417C57.3966 22.5689 57.1441 22.8783 57.1441 23.2697C57.1441 23.901 57.5734 24.2167 58.4319 24.2167C58.9244 24.2167 59.3537 24.0841 59.7198 23.819C60.0986 23.5538 60.288 23.2255 60.288 22.8341V21.9818ZM71.3295 16.1106C72.6679 16.1106 73.798 16.3758 74.7197 16.9061C75.654 17.4237 76.1212 18.2318 76.1212 19.3303H72.6174C72.6174 18.9642 72.4533 18.7053 72.125 18.5538C71.8977 18.4275 71.6136 18.3644 71.2727 18.3644C70.3636 18.3644 69.9091 18.579 69.9091 19.0083C69.9091 19.2482 70.0669 19.4187 70.3826 19.5197C70.6982 19.6207 71.2159 19.728 71.9356 19.8417C72.8194 19.9679 73.5581 20.1195 74.1515 20.2962C74.7449 20.4604 75.2626 20.7634 75.7045 21.2053C76.1464 21.6346 76.3674 22.2407 76.3674 23.0235C76.3674 24.2987 75.8876 25.2078 74.928 25.7508C73.981 26.2937 72.7374 26.5652 71.197 26.5652C70.3131 26.5652 69.4798 26.4452 68.6969 26.2053C67.9141 25.9528 67.2765 25.5677 66.7841 25.05C66.2916 24.5323 66.0454 23.8758 66.0454 23.0803H69.5492V23.1561C69.5618 23.5854 69.7386 23.8884 70.0795 24.0652C70.4331 24.2293 70.8055 24.3114 71.197 24.3114C72.2449 24.3114 72.7689 24.0652 72.7689 23.5727C72.7689 23.3202 72.6048 23.1371 72.2765 23.0235C71.9482 22.9099 71.4116 22.7899 70.6666 22.6636C69.7702 22.5121 69.0315 22.348 68.4507 22.1712C67.8826 21.9945 67.3838 21.6977 66.9545 21.2811C66.5252 20.8518 66.3106 20.2583 66.3106 19.5008C66.3106 18.276 66.7714 17.4048 67.6932 16.8871C68.6275 16.3695 69.8396 16.1106 71.3295 16.1106Z" fill="white"/>
<path d="M78.4191 13.3076H88.9494V16.4326H82.6047V18.6674H88.0592V21.6599H82.6047V26.3379H78.4191V13.3076ZM96.2186 16.0917C96.509 16.0917 96.7678 16.1296 96.9951 16.2053C97.2224 16.2684 97.336 16.3063 97.336 16.3189V19.4818H96.1239C95.341 19.4818 94.7729 19.6838 94.4193 20.0879C94.0784 20.4919 93.908 21.0917 93.908 21.8871V26.3379H90.139V16.3379H93.2261L93.4723 17.853C93.6996 17.2722 94.0595 16.8366 94.5519 16.5462C95.0443 16.2432 95.5999 16.0917 96.2186 16.0917ZM104.021 16.1106C105.852 16.1106 107.247 16.5399 108.206 17.3985C109.179 18.2571 109.665 19.5702 109.665 21.3379V21.9818H102.165C102.165 22.7015 102.323 23.2445 102.638 23.6106C102.967 23.9768 103.478 24.1599 104.172 24.1599C104.804 24.1599 105.265 24.0273 105.555 23.7621C105.858 23.497 106.009 23.1434 106.009 22.7015H109.665C109.665 23.9136 109.204 24.8606 108.282 25.5424C107.361 26.2243 106.016 26.5652 104.248 26.5652C102.392 26.5652 100.953 26.1359 99.9299 25.2773C98.9072 24.4061 98.3959 23.0929 98.3959 21.3379C98.3959 19.6207 98.8946 18.3202 99.8921 17.4364C100.89 16.5525 102.266 16.1106 104.021 16.1106ZM104.172 18.5159C102.986 18.5159 102.323 19.0778 102.184 20.2015H105.858C105.858 19.6838 105.706 19.2735 105.403 18.9705C105.113 18.6674 104.703 18.5159 104.172 18.5159ZM116.653 16.1106C118.484 16.1106 119.879 16.5399 120.839 17.3985C121.811 18.2571 122.297 19.5702 122.297 21.3379V21.9818H114.797C114.797 22.7015 114.955 23.2445 115.271 23.6106C115.599 23.9768 116.11 24.1599 116.805 24.1599C117.436 24.1599 117.897 24.0273 118.187 23.7621C118.49 23.497 118.642 23.1434 118.642 22.7015H122.297C122.297 23.9136 121.836 24.8606 120.915 25.5424C119.993 26.2243 118.648 26.5652 116.881 26.5652C115.024 26.5652 113.585 26.1359 112.562 25.2773C111.54 24.4061 111.028 23.0929 111.028 21.3379C111.028 19.6207 111.527 18.3202 112.524 17.4364C113.522 16.5525 114.898 16.1106 116.653 16.1106ZM116.805 18.5159C115.618 18.5159 114.955 19.0778 114.816 20.2015H118.49C118.49 19.6838 118.339 19.2735 118.036 18.9705C117.745 18.6674 117.335 18.5159 116.805 18.5159Z" fill="#28FF97"/>
<path d="M25.9482 4C28.8084 4 31.1269 6.31859 31.127 9.17871V30.0635C31.127 32.9236 28.8084 35.2422 25.9482 35.2422H5.06348C2.20335 35.2422 -0.115234 32.9236 -0.115234 30.0635V9.17871C-0.115217 6.3186 2.20336 4.00002 5.06348 4H25.9482ZM12.8662 10.0586C10.7574 10.0586 8.93999 11.5424 8.51758 13.6084L5.00977 30.7666L14.3115 25.2939H19.1025C21.1916 25.2939 22.9987 23.8365 23.4414 21.7949L24.6484 16.2246H14.8418L14.2949 19.2656H20.2275L20.1143 19.7812C19.8159 21.1381 18.614 22.1063 17.2246 22.1064H13.8076L9.46289 24.877L10.0488 21.9531H10.0352L11.2041 16.2246H11.2178L11.3867 15.3691C11.6606 13.9827 12.8768 12.9834 14.29 12.9834H25.3506L25.9844 10.0586H12.8662Z" fill="#28FF97"/>
</g>
<defs>
<clipPath id="clip0_145_2189">
<rect width="124" height="40" fill="white"/>
</clipPath>
</defs>
</svg>
